<svg width="17" height="27" viewBox="0 0 17 27" fill="none" xmlns="http://www.w3.org/2000/svg">
<g clip-path="url(#clip0_2_108)">
<path d="M0.499376 19.0582C-0.164686 19.7174 -0.164686 20.7852 0.499376 21.4444C0.828751 21.774 1.26438 21.9375 1.7 21.9375C2.13563 21.9375 2.57019 21.7727 2.90169 21.4431L8.5 15.8888L14.0978 21.4418C14.4298 21.774 14.8649 21.9375 15.3 21.9375C15.7351 21.9375 16.1697 21.774 16.502 21.4418C17.166 20.7826 17.166 19.7147 16.502 19.0555L10.9026 13.4973L16.502 7.94177C17.166 7.28259 17.166 6.21472 16.502 5.55554C15.8379 4.89636 14.7621 4.89636 14.098 5.55554L8.5 11.1164L2.90063 5.55818C2.23656 4.899 1.16078 4.899 0.496719 5.55818C-0.167343 6.21736 -0.167343 7.28523 0.496719 7.94441L6.09609 13.5026L0.499376 19.0582Z" fill="#004374"/>
</g>
<defs>
<clipPath id="clip0_2_108">
<rect width="17" height="27" fill="white" transform="matrix(-1 0 0 1 17 0)"/>
</clipPath>
</defs>
</svg>
