<svg width="176" height="35" viewBox="0 0 176 35" fill="none" xmlns="http://www.w3.org/2000/svg">
<path d="M42.0459 24.6162L46.2939 6.67188H48.667L49.209 9.66016L44.6826 28H42.1338L42.0459 24.6162ZM39.8633 6.67188L43.3789 24.6162L43.0859 28H40.2441L35.5127 6.67188H39.8633ZM52.9443 24.543L56.416 6.67188H60.7666L56.0498 28H53.208L52.9443 24.543ZM50 6.67188L54.2773 24.6895L54.1602 28H51.6113L47.0557 9.64551L47.6416 6.67188H50ZM67.3438 12.1504V28H63.1104V12.1504H67.3438ZM62.8467 8.01953C62.8467 7.4043 63.0615 6.89648 63.4912 6.49609C63.9209 6.0957 64.4971 5.89551 65.2197 5.89551C65.9326 5.89551 66.5039 6.0957 66.9336 6.49609C67.373 6.89648 67.5928 7.4043 67.5928 8.01953C67.5928 8.63477 67.373 9.14258 66.9336 9.54297C66.5039 9.94336 65.9326 10.1436 65.2197 10.1436C64.4971 10.1436 63.9209 9.94336 63.4912 9.54297C63.0615 9.14258 62.8467 8.63477 62.8467 8.01953ZM75.0488 5.48535V28H70.8301V5.48535H75.0488ZM85.0391 12.1504L78.1543 20.002L74.4629 23.7373L72.9248 20.6904L75.8545 16.9697L79.9707 12.1504H85.0391ZM80.6592 28L75.9717 20.6758L78.8867 18.127L85.5225 28H80.6592ZM91.3086 12.1504V28H87.0752V12.1504H91.3086ZM86.8115 8.01953C86.8115 7.4043 87.0264 6.89648 87.4561 6.49609C87.8857 6.0957 88.4619 5.89551 89.1846 5.89551C89.8975 5.89551 90.4688 6.0957 90.8984 6.49609C91.3379 6.89648 91.5576 7.4043 91.5576 8.01953C91.5576 8.63477 91.3379 9.14258 90.8984 9.54297C90.4688 9.94336 89.8975 10.1436 89.1846 10.1436C88.4619 10.1436 87.8857 9.94336 87.4561 9.54297C87.0264 9.14258 86.8115 8.63477 86.8115 8.01953ZM97.0654 6.67188H100.786L106.265 22.3311L111.743 6.67188H115.464L107.759 28H104.771L97.0654 6.67188ZM95.0586 6.67188H98.7646L99.4385 21.9355V28H95.0586V6.67188ZM113.765 6.67188H117.485V28H113.091V21.9355L113.765 6.67188ZM120.4 20.2363V19.9287C120.4 18.7666 120.566 17.6973 120.898 16.7207C121.23 15.7344 121.714 14.8799 122.349 14.1572C122.983 13.4346 123.765 12.873 124.692 12.4727C125.62 12.0625 126.685 11.8574 127.886 11.8574C129.087 11.8574 130.156 12.0625 131.094 12.4727C132.031 12.873 132.817 13.4346 133.452 14.1572C134.097 14.8799 134.585 15.7344 134.917 16.7207C135.249 17.6973 135.415 18.7666 135.415 19.9287V20.2363C135.415 21.3887 135.249 22.458 134.917 23.4443C134.585 24.4209 134.097 25.2754 133.452 26.0078C132.817 26.7305 132.036 27.292 131.108 27.6924C130.181 28.0928 129.116 28.293 127.915 28.293C126.714 28.293 125.645 28.0928 124.707 27.6924C123.779 27.292 122.993 26.7305 122.349 26.0078C121.714 25.2754 121.23 24.4209 120.898 23.4443C120.566 22.458 120.4 21.3887 120.4 20.2363ZM124.619 19.9287V20.2363C124.619 20.9004 124.678 21.5205 124.795 22.0967C124.912 22.6729 125.098 23.1807 125.352 23.6201C125.615 24.0498 125.957 24.3867 126.377 24.6309C126.797 24.875 127.31 24.9971 127.915 24.9971C128.501 24.9971 129.004 24.875 129.424 24.6309C129.844 24.3867 130.181 24.0498 130.435 23.6201C130.688 23.1807 130.874 22.6729 130.991 22.0967C131.118 21.5205 131.182 20.9004 131.182 20.2363V19.9287C131.182 19.2842 131.118 18.6787 130.991 18.1123C130.874 17.5361 130.684 17.0283 130.42 16.5889C130.166 16.1396 129.829 15.7881 129.409 15.5342C128.989 15.2803 128.481 15.1533 127.886 15.1533C127.29 15.1533 126.782 15.2803 126.362 15.5342C125.952 15.7881 125.615 16.1396 125.352 16.5889C125.098 17.0283 124.912 17.5361 124.795 18.1123C124.678 18.6787 124.619 19.2842 124.619 19.9287ZM143.164 24.9238L146.68 12.1504H151.089L145.742 28H143.076L143.164 24.9238ZM140.747 12.1504L144.277 24.9385L144.351 28H141.67L136.323 12.1504H140.747ZM157.432 12.1504V28H153.198V12.1504H157.432ZM152.935 8.01953C152.935 7.4043 153.149 6.89648 153.579 6.49609C154.009 6.0957 154.585 5.89551 155.308 5.89551C156.021 5.89551 156.592 6.0957 157.021 6.49609C157.461 6.89648 157.681 7.4043 157.681 8.01953C157.681 8.63477 157.461 9.14258 157.021 9.54297C156.592 9.94336 156.021 10.1436 155.308 10.1436C154.585 10.1436 154.009 9.94336 153.579 9.54297C153.149 9.14258 152.935 8.63477 152.935 8.01953ZM168.213 28.293C166.982 28.293 165.879 28.0977 164.902 27.707C163.926 27.3066 163.096 26.7549 162.412 26.0518C161.738 25.3486 161.221 24.5332 160.859 23.6055C160.498 22.668 160.317 21.6719 160.317 20.6172V20.0312C160.317 18.8301 160.488 17.7314 160.83 16.7354C161.172 15.7393 161.66 14.875 162.295 14.1426C162.939 13.4102 163.721 12.8486 164.639 12.458C165.557 12.0576 166.592 11.8574 167.744 11.8574C168.867 11.8574 169.863 12.043 170.732 12.4141C171.602 12.7852 172.329 13.3125 172.915 13.9961C173.511 14.6797 173.96 15.5 174.263 16.457C174.565 17.4043 174.717 18.459 174.717 19.6211V21.3789H162.119V18.5664H170.571V18.2441C170.571 17.6582 170.464 17.1357 170.249 16.6768C170.044 16.208 169.731 15.8369 169.312 15.5635C168.892 15.29 168.354 15.1533 167.7 15.1533C167.144 15.1533 166.665 15.2754 166.265 15.5195C165.864 15.7637 165.537 16.1055 165.283 16.5449C165.039 16.9844 164.854 17.502 164.727 18.0977C164.609 18.6836 164.551 19.3281 164.551 20.0312V20.6172C164.551 21.252 164.639 21.8379 164.814 22.375C165 22.9121 165.259 23.376 165.591 23.7666C165.933 24.1572 166.343 24.46 166.821 24.6748C167.31 24.8896 167.861 24.9971 168.477 24.9971C169.238 24.9971 169.946 24.8506 170.601 24.5576C171.265 24.2549 171.836 23.8008 172.314 23.1953L174.365 25.4219C174.033 25.9004 173.579 26.3594 173.003 26.7988C172.437 27.2383 171.753 27.5996 170.952 27.8828C170.151 28.1562 169.238 28.293 168.213 28.293Z" fill="#444444"/>
<path d="M23.8281 8H23.4375V8.97656C23.4375 9.29883 23.1738 9.5625 22.8516 9.5625H20.8984C20.5762 9.5625 20.3125 9.29883 20.3125 8.97656V8H4.6875V8.97656C4.6875 9.29883 4.42383 9.5625 4.10156 9.5625H2.14844C1.82617 9.5625 1.5625 9.29883 1.5625 8.97656V8H1.17188C0.522461 8 0 8.52246 0 9.17188V25.5781C0 26.2275 0.522461 26.75 1.17188 26.75H1.5625V25.7734C1.5625 25.4512 1.82617 25.1875 2.14844 25.1875H4.10156C4.42383 25.1875 4.6875 25.4512 4.6875 25.7734V26.75H20.3125V25.7734C20.3125 25.4512 20.5762 25.1875 20.8984 25.1875H22.8516C23.1738 25.1875 23.4375 25.4512 23.4375 25.7734V26.75H23.8281C24.4775 26.75 25 26.2275 25 25.5781V9.17188C25 8.52246 24.4775 8 23.8281 8ZM4.6875 23.0391C4.6875 23.3613 4.42383 23.625 4.10156 23.625H2.14844C1.82617 23.625 1.5625 23.3613 1.5625 23.0391V21.0859C1.5625 20.7637 1.82617 20.5 2.14844 20.5H4.10156C4.42383 20.5 4.6875 20.7637 4.6875 21.0859V23.0391ZM4.6875 18.3516C4.6875 18.6738 4.42383 18.9375 4.10156 18.9375H2.14844C1.82617 18.9375 1.5625 18.6738 1.5625 18.3516V16.3984C1.5625 16.0762 1.82617 15.8125 2.14844 15.8125H4.10156C4.42383 15.8125 4.6875 16.0762 4.6875 16.3984V18.3516ZM4.6875 13.6641C4.6875 13.9863 4.42383 14.25 4.10156 14.25H2.14844C1.82617 14.25 1.5625 13.9863 1.5625 13.6641V11.7109C1.5625 11.3887 1.82617 11.125 2.14844 11.125H4.10156C4.42383 11.125 4.6875 11.3887 4.6875 11.7109V13.6641ZM17.9688 23.8203C17.9688 24.1426 17.7051 24.4062 17.3828 24.4062H7.61719C7.29492 24.4062 7.03125 24.1426 7.03125 23.8203V19.1328C7.03125 18.8105 7.29492 18.5469 7.61719 18.5469H17.3828C17.7051 18.5469 17.9688 18.8105 17.9688 19.1328V23.8203ZM17.9688 15.6172C17.9688 15.9395 17.7051 16.2031 17.3828 16.2031H7.61719C7.29492 16.2031 7.03125 15.9395 7.03125 15.6172V10.9297C7.03125 10.6074 7.29492 10.3438 7.61719 10.3438H17.3828C17.7051 10.3438 17.9688 10.6074 17.9688 10.9297V15.6172ZM23.4375 23.0391C23.4375 23.3613 23.1738 23.625 22.8516 23.625H20.8984C20.5762 23.625 20.3125 23.3613 20.3125 23.0391V21.0859C20.3125 20.7637 20.5762 20.5 20.8984 20.5H22.8516C23.1738 20.5 23.4375 20.7637 23.4375 21.0859V23.0391ZM23.4375 18.3516C23.4375 18.6738 23.1738 18.9375 22.8516 18.9375H20.8984C20.5762 18.9375 20.3125 18.6738 20.3125 18.3516V16.3984C20.3125 16.0762 20.5762 15.8125 20.8984 15.8125H22.8516C23.1738 15.8125 23.4375 16.0762 23.4375 16.3984V18.3516ZM23.4375 13.6641C23.4375 13.9863 23.1738 14.25 22.8516 14.25H20.8984C20.5762 14.25 20.3125 13.9863 20.3125 13.6641V11.7109C20.3125 11.3887 20.5762 11.125 20.8984 11.125H22.8516C23.1738 11.125 23.4375 11.3887 23.4375 11.7109V13.6641Z" fill="#444444"/>
</svg>
